<svg width="53" height="53" viewBox="0 0 53 53" fill="none" xmlns="http://www.w3.org/2000/svg">
<circle cx="26.5" cy="26.5" r="26" fill="#E0E0E0" stroke="#D1D1D1"/>
<mask id="mask0_1_20" style="mask-type:alpha" maskUnits="userSpaceOnUse" x="4" y="4" width="44" height="44">
<circle cx="26" cy="26" r="21.5" fill="#ECECEC" stroke="black"/>
</mask>
<g mask="url(#mask0_1_20)">
<path d="M3.81572 51.9863C-0.868976 44.7532 1.49754 35.6023 9.10147 31.5472L29.5541 20.64C35.9298 17.24 44.2824 19.4 48.2104 25.4647C52.4548 32.018 49.759 40.3097 42.4365 43.2242L38.7796 44.6797C36.1105 45.7421 33.8097 47.4367 32.0992 49.6004L27.7789 55.065C26.0301 57.277 23.525 58.8662 20.6466 59.5897C14.6227 61.1037 8.09068 58.5867 4.78062 53.476L3.81572 51.9863Z" fill="#FF71CD"/>
<path d="M4.81572 36.4677C0.131024 29.2347 2.49754 20.0838 10.1015 16.0287L30.5541 5.12149C36.9298 1.72143 45.2824 3.88152 49.2104 9.94618C53.4548 16.4995 50.759 24.7912 43.4365 27.7057L39.7796 29.1612C37.1105 30.2235 34.8097 31.9182 33.0992 34.0819L28.7789 39.5465C27.0301 41.7585 24.525 43.3477 21.6466 44.0711C15.6227 45.5852 9.09068 43.0682 5.78062 37.9575L4.81572 36.4677Z" fill="#5755FE"/>
<path d="M-4.18428 29.1159C-8.86898 21.8829 -6.50246 12.732 1.10147 8.6769L21.5541 -2.23032C27.9298 -5.63038 36.2824 -3.47029 40.2104 2.59437C44.4548 9.14767 41.759 17.4394 34.4365 20.3539L30.7796 21.8094C28.1105 22.8717 25.8097 24.5664 24.0992 26.7301L19.7789 32.1947C18.0301 34.4067 15.525 35.9959 12.6466 36.7193C6.62272 38.2334 0.0906796 35.7164 -3.21938 30.6057L-4.18428 29.1159Z" fill="#8B93FF"/>
<path d="M-5.18428 13.5974C-9.86898 6.36435 -7.50246 -2.78652 0.101472 -6.84163L20.5541 -17.7488C26.9298 -21.1489 35.2824 -18.9888 39.2104 -12.9242C43.4548 -6.37086 40.759 1.92087 33.4365 4.83536L29.7796 6.29087C27.1105 7.35321 24.8097 9.04789 23.0992 11.2115L18.7789 16.6762C17.0301 18.8882 14.525 20.4773 11.6466 21.2008C5.62272 22.7148 -0.90932 20.1979 -4.21938 15.0872L-5.18428 13.5974Z" fill="#FFF7FC"/>
</g>
</svg>
